<?xml version="1.0" encoding="iso-8859-1"?>
<!-- Generator: Adobe Illustrator 18.1.1, SVG Export Plug-In . SVG Version: 6.00 Build 0)  -->
<svg version="1.1" id="Capa_1" xmlns="http://www.w3.org/2000/svg" xmlns:xlink="http://www.w3.org/1999/xlink" x="0px" y="0px"
	 viewBox="0 0 388.414 388.414" style="enable-background:new 0 0 388.414 388.414;" xml:space="preserve">
<g>
	<path style="fill:#010002;" d="M230.286,383.465L386.907,15.126c1.301-3.048,0.61-6.584-1.731-8.925
		c-0.008-0.008-0.016-0.016-0.024-0.016c-0.341-1.39-1-2.707-2.048-3.764c-0.008-0.008-0.024-0.024-0.032-0.041
		c-2.349-2.341-5.885-3.032-8.933-1.731L5.807,157.271c-4.129,1.756-6.056,6.527-4.3,10.665c0.423,0.984,1.016,1.845,1.731,2.56
		c0.675,0.675,1.479,1.171,2.333,1.569c0.382,0.805,0.837,1.593,1.504,2.268l71.938,71.938l-6.739,57.884
		c-0.008,0.081,0.033,0.146,0.024,0.219c-1.87,3.333-1.528,7.584,1.317,10.413c2.365,2.374,5.739,2.991,8.73,2.081
		c0.366,0,0.683,0.171,1.049,0.122l57.9-6.722l71.93,71.938c0.675,0.667,1.463,1.122,2.268,1.504
		c0.39,0.845,0.886,1.658,1.561,2.325c0.723,0.723,1.577,1.317,2.56,1.739C223.75,389.512,228.53,387.594,230.286,383.465z
		 M88.141,232.411l-64.89-64.899l311.861-132.61L88.141,232.411z M265.653,111.263L90.734,286.174l4.487-38.627L265.653,111.263z
		 M101.375,298.529l174.911-174.903L139.994,294.042L101.375,298.529z M155.145,301.13l197.5-246.971l-132.61,311.869
		L155.145,301.13z"/>
</g>
<g>
</g>
<g>
</g>
<g>
</g>
<g>
</g>
<g>
</g>
<g>
</g>
<g>
</g>
<g>
</g>
<g>
</g>
<g>
</g>
<g>
</g>
<g>
</g>
<g>
</g>
<g>
</g>
<g>
</g>
</svg>
